<?xml version="1.0" encoding="UTF-8" ?>
<svg width="20px" height="20px" viewBox="0 0 20 20" version="1.1" xmlns="http://www.w3.org/2000/svg" xmlns:xlink="http://www.w3.org/1999/xlink">
    <!-- Generator: Sketch 60 (88103) - https://sketch.com -->
    <title>Fill 6</title>
    <desc>Created with Sketch.</desc>
    <g id="Symbols" stroke="none" stroke-width="1" fill="none" fill-rule="evenodd">
        <g id="Material/Icons-black/forum" transform="translate(-2.000000, -2.000000)" fill="#c8c8c8">
            <path d="M21.001,6 L19,6 L19,15 L5.999,15 L5.999,17 C5.999,17.552 6.449,18 7,18 L17.999,18 L22,22 L22,7 C22,6.447 21.552,6 21.001,6 M16.001,1.999 L3,1.999 C2.448,1.999 2,2.447 2,3 L2,17 L5.999,13 L16.001,13 C16.552,13 17,12.552 17,11.999 L17,3 C17,2.447 16.552,1.999 16.001,1.999" id="Fill-6"></path>
        </g>
    </g>
</svg>