<?xml version="1.0" encoding="UTF-8" ?>
<svg width="36px" height="32px" viewBox="0 0 36 32" version="1.1" xmlns="http://www.w3.org/2000/svg" xmlns:xlink="http://www.w3.org/1999/xlink">
    <!-- Generator: Sketch 60 (88103) - https://sketch.com -->
    <title>Shape</title>
    <desc>Created with Sketch.</desc>
    <g id="Page-1" stroke="none" stroke-width="1" fill="none" fill-rule="evenodd">
        <path d="M17.9995796,3.57078929 L18.5540099,3.01289244 C20.4701974,1.08381856 23.0696455,0 25.7801802,0 C28.4907148,0 31.0901629,1.08381856 33.0058287,3.01236743 C34.9229159,4.94053597 36,7.55623716 36,10.2837195 C36,13.0112019 34.9229159,15.626903 33.0060896,17.5548091 L19.1110373,31.5367406 C18.4971961,32.1544198 17.501963,32.1544198 16.8881219,31.5367406 L2.99306958,17.5548091 C-0.997689901,13.5390972 -0.997689853,7.02834186 2.99306969,3.01263 C6.98382922,-1.00308187 13.4541288,-1.00308191 17.4448884,3.0126299 L17.9995796,3.57078929 Z M30.9070651,15.1455642 C32.2471149,13.8116486 33,12.002095 33,10.1152106 C33,8.22832619 32.2471149,6.41877251 30.9065383,5.08433234 C29.5671173,3.74979048 27.7500951,3 25.8554231,3 C23.960751,3 22.1437288,3.74979048 20.8040445,5.08459469 L19.1217822,6.75994239 C18.5020046,7.37717255 17.4971465,7.37717255 16.8773688,6.75994239 L15.1951066,5.0845947 C12.4053072,2.30626234 7.88214883,2.30626237 5.09234951,5.08459478 C2.30255019,7.86292718 2.30255016,12.367494 5.09234942,15.1458265 L17.9995755,28 L30.9070651,15.1455642 Z" id="Shape" fill="#FFFFFF"></path>
    </g>
</svg>