<?xml version="1.0" encoding="UTF-8"?>
<svg width="26px" height="29px" viewBox="0 0 26 29" version="1.1" xmlns="http://www.w3.org/2000/svg" xmlns:xlink="http://www.w3.org/1999/xlink">
    <!-- Generator: Sketch 60.1 (88133) - https://sketch.com -->
    <title>Shape</title>
    <desc>Created with Sketch.</desc>
    <g id="Page-1" stroke="none" stroke-width="1" fill="none" fill-rule="evenodd">
        <path d="M14.6913853,25.535125 C15.0753587,24.9995711 15.7923856,24.8369343 16.361073,25.1804233 C16.9735056,25.5503345 17.1819837,26.3671539 16.8267219,27.0048405 C16.1386909,28.23984 14.8712029,29 13.5,29 C12.1287971,29 10.8613091,28.23984 10.1732781,27.0048405 C9.81801628,26.3671539 10.0264944,25.5503345 10.638927,25.1804233 C11.2513596,24.8105121 12.0358309,25.0275869 12.3910927,25.6652735 L12.3910927,25.6652735 L12.4744768,25.796503 C12.7147512,26.13012 13.0937177,26.3303267 13.5,26.3303267 C13.9570676,26.3303267 14.3795636,26.07694 14.6089073,25.6652735 L14.6089073,25.6652735 Z M13,0 C18.0248652,0 22.0983233,4.05577344 22.0983233,9.05882353 C22.0983233,12.8114462 22.7780528,15.6313565 23.8892575,17.6597208 C24.2613221,18.3388779 24.651659,18.8700224 25.0321461,19.269904 C25.2376585,19.4858919 25.3760697,19.6007338 25.4188216,19.6291114 L25.4188216,19.6291114 L25.5397138,19.7187355 C26.4471836,20.4695498 25.9323979,22 24.6978442,22 L24.6978442,22 L1.30215576,22 C0.0161624048,22 -0.488832778,20.3393552 0.581178371,19.6291114 L0.581178371,19.6291114 L0.610393743,19.6076493 C0.67193132,19.5596436 0.796593581,19.4498939 0.967853878,19.269904 C1.34834096,18.8700224 1.73867785,18.3388779 2.1107425,17.6597208 C3.22194723,15.6313565 3.9016767,12.8114462 3.9016767,9.05882353 L3.9016767,9.05882353 L3.90695245,8.74739444 C4.07181706,3.8885432 8.07981949,0 13,0 Z M13,2.58823529 C9.41081057,2.58823529 6.50119764,5.48521632 6.50119764,9.05882353 L6.50119764,9.05882353 L6.49590033,9.64878839 C6.42544166,13.5399664 5.65556106,16.5941836 4.39285043,18.8991028 C4.29470748,19.0782504 4.19599339,19.2490742 4.09713244,19.4117647 L4.09713244,19.4117647 L21.9028676,19.4117647 C21.8040066,19.2490742 21.7052925,19.0782504 21.6071496,18.8991028 C20.2813034,16.4789376 19.4988024,13.2326714 19.4988024,9.05882353 C19.4988024,5.48521632 16.5891894,2.58823529 13,2.58823529 Z" id="Shape" fill="#FFFFFF"></path>
    </g>
</svg>