<?xml version="1.0" encoding="UTF-8"?>
<svg width="36px" height="36px" viewBox="0 0 36 36" version="1.1" xmlns="http://www.w3.org/2000/svg" xmlns:xlink="http://www.w3.org/1999/xlink">
    <!-- Generator: Sketch 60.1 (88133) - https://sketch.com -->
    <title>Shape</title>
    <desc>Created with Sketch.</desc>
    <g id="Page-1" stroke="none" stroke-width="1" fill="none" fill-rule="evenodd">
        <path d="M3.00540543,23.3955418 C2.20720724,21.3955559 1.79731511,19.2573333 1.80294877,17.0979655 C1.80545431,10.6228701 5.46538025,4.70469293 11.2505545,1.81337618 C13.6239695,0.614558926 16.2470143,-0.0067030809 18.9013957,5.45429563e-05 L19.801314,5.45429563e-05 L20.3810709,0.0361296182 C28.8388161,0.739474199 35.5269513,7.5784845 36,16.1987438 L36,17.0940081 C36.0067634,19.7530429 35.3855013,22.3760873 34.1901154,24.7426722 C31.2953667,30.5346752 25.3771886,34.1946005 18.9060883,34.1971001 C16.5031785,34.2033651 14.1296374,33.6966303 11.9431352,32.7142385 L2.37210692,35.9045808 C0.96507026,36.3735929 -0.373538442,35.0349844 0.0954737787,33.627948 L3.28581585,24.0569233 L3.00540543,23.3955418 Z M19.3741792,3.00005454 C17.2635398,2.99468547 15.1814794,3.48786357 13.2906856,4.44298044 C8.67755658,6.74876605 5.7625533,11.4628367 5.76055169,16.6245474 C5.75504879,18.7353433 6.24816581,20.817591 7.19973796,22.7016896 C7.41801286,23.1338707 7.45467385,23.6353326 7.30157621,24.0946692 L5,31.0000545 L11.9047286,28.6982594 C12.3640215,28.5451472 12.8654358,28.5818117 13.2975758,28.8001074 C15.1814953,29.75177 17.2635449,30.2449339 19.3781716,30.2394245 C24.53536,30.2374287 29.2489823,27.3221482 31.5580105,22.7016896 C32.5095747,20.8176068 33.0027059,18.7353484 32.9972424,16.6198128 L33,15.8118829 C32.6277642,9.06487999 27.3613974,3.64486155 20.6824699,3.03372886 L20.2351535,3.00005454 L19.3741792,3.00005454 Z" id="Shape" fill="#FFFFFF"></path>
    </g>
</svg>