<?xml version="1.0" encoding="UTF-8"?>
<svg width="26px" height="29px" viewBox="0 0 26 29" version="1.1" xmlns="http://www.w3.org/2000/svg" xmlns:xlink="http://www.w3.org/1999/xlink">
    <!-- Generator: Sketch 60.1 (88133) - https://sketch.com -->
    <title>Shape</title>
    <desc>Created with Sketch.</desc>
    <g id="Page-1" stroke="none" stroke-width="1" fill="none" fill-rule="evenodd">
        <path d="M18.7777778,17 C22.766501,17 26,20.3578644 26,24.5 L26,24.5 L26,27.5 C26,28.3284271 25.3533002,29 24.5555556,29 C23.7578109,29 23.1111111,28.3284271 23.1111111,27.5 L23.1111111,27.5 L23.1111111,24.5 C23.1111111,22.0147186 21.1710117,20 18.7777778,20 L18.7777778,20 L7.22222222,20 C4.82898831,20 2.88888889,22.0147186 2.88888889,24.5 L2.88888889,24.5 L2.88888889,27.5 C2.88888889,28.3284271 2.24218908,29 1.44444444,29 C0.646699806,29 0,28.3284271 0,27.5 L0,27.5 L0,24.5 C0,20.3578644 3.23349903,17 7.22222222,17 L7.22222222,17 Z M13,0 C16.8659932,0 20,3.35786438 20,7.5 C20,11.6421356 16.8659932,15 13,15 C9.13400675,15 6,11.6421356 6,7.5 C6,3.35786438 9.13400675,0 13,0 Z M13,3 C10.6804041,3 8.8,5.01471863 8.8,7.5 C8.8,9.98528137 10.6804041,12 13,12 C15.3195959,12 17.2,9.98528137 17.2,7.5 C17.2,5.01471863 15.3195959,3 13,3 Z" id="Shape" fill="#FFFFFF"></path>
    </g>
</svg>