<?xml version="1.0" encoding="UTF-8" ?>
<svg width="44px" height="29px" viewBox="0 0 44 29" version="1.1" xmlns="http://www.w3.org/2000/svg" xmlns:xlink="http://www.w3.org/1999/xlink">
    <!-- Generator: Sketch 60 (88103) - https://sketch.com -->
    <title>Shape Copy</title>
    <desc>Created with Sketch.</desc>
    <g id="Page-1" stroke="none" stroke-width="1" fill="none" fill-rule="evenodd">
        <path d="M25.5294118,0 C28.5507342,0 31,2.43445167 31,5.4375 L31,11.283 L41.0132167,4.34461957 C42.2634128,3.47814165 44,4.34528105 44,5.83602604 L44,24.163974 C44,25.6547189 42.2634128,26.5218584 41.0132167,25.6553804 L31,18.716 L31,23.5625 C31,26.5655483 28.5507342,29 25.5294118,29 L5.47058824,29 C2.44926578,29 0,26.5655483 0,23.5625 L0,5.4375 C0,2.43445167 2.44926578,0 5.47058824,0 L25.5294118,0 Z M25.5294118,3.625 L5.47058824,3.625 C4.46348075,3.625 3.64705882,4.43648389 3.64705882,5.4375 L3.64705882,23.5625 C3.64705882,24.5635161 4.46348075,25.375 5.47058824,25.375 L25.5294118,25.375 C26.5365192,25.375 27.3529412,24.5635161 27.3529412,23.5625 L27.3523112,16.0684378 C26.8825629,15.4344175 26.8825629,14.5655825 27.3523112,13.9315622 L27.3529412,5.4375 C27.3529412,4.43648389 26.5365192,3.625 25.5294118,3.625 Z M40.2222222,9.39749331 L32.1386562,15 L40.2222222,20.6025067 L40.2222222,9.39749331 Z" id="Shape-Copy" fill="#FFFFFF"></path>
    </g>
</svg>