<?xml version="1.0" encoding="UTF-8" ?>
<svg width="43px" height="43px" viewBox="0 0 43 43" version="1.1" xmlns="http://www.w3.org/2000/svg" xmlns:xlink="http://www.w3.org/1999/xlink">
    <!-- Generator: Sketch 60 (88103) - https://sketch.com -->
    <title>Shape Copy</title>
    <desc>Created with Sketch.</desc>
    <g id="Page-1" stroke="none" stroke-width="1" fill="none" fill-rule="evenodd">
        <path d="M36.5500002,0 C40.1122368,0 43,2.88776338 43,6.45000003 L43,36.5500002 C43,40.1122368 40.1122368,43 36.5500002,43 L6.45000003,43 L6.3115902,42.9993079 C6.21283148,43.001795 6.11393422,42.9975792 6.01564519,42.9866607 C2.65576538,42.762011 0,39.9661493 0,36.5500002 L0,6.45000003 C0,2.88776338 2.88776338,0 6.45000003,0 L36.5500002,0 Z M30.031746,20.2127699 L11.468,38.7 L36.5500002,38.7000002 C37.7374124,38.7000002 38.7000002,37.7374124 38.7000002,36.5500002 L38.7,28.845 L30.031746,20.2127699 Z M36.5500002,4.30000002 L6.45000003,4.30000002 C5.26258781,4.30000002 4.30000002,5.26258781 4.30000002,6.45000003 L4.30000002,36.5500002 C4.30000002,37.4173273 4.81357427,38.1647028 5.55320716,38.504611 L28.5034226,15.6463623 C29.3474923,14.8057099 30.7159997,14.8057099 31.5600694,15.6463623 L31.5600694,15.6463623 L38.7,22.758 L38.7000002,6.45000003 C38.7000002,5.26258781 37.7374124,4.30000002 36.5500002,4.30000002 Z M13.6507937,8.19047619 C16.6664437,8.19047619 19.1111112,10.6351436 19.1111112,13.6507937 C19.1111112,16.6664437 16.6664437,19.1111112 13.6507937,19.1111112 C10.6351436,19.1111112 8.19047619,16.6664437 8.19047619,13.6507937 C8.19047619,10.6351436 10.6351436,8.19047619 13.6507937,8.19047619 Z M13.6507937,12.5587302 C13.0476637,12.5587302 12.5587302,13.0476637 12.5587302,13.6507937 C12.5587302,14.2539237 13.0476637,14.7428572 13.6507937,14.7428572 C14.2539237,14.7428572 14.7428572,14.2539237 14.7428572,13.6507937 C14.7428572,13.0476637 14.2539237,12.5587302 13.6507937,12.5587302 Z" id="Shape-Copy" fill="#FFFFFF"></path>
    </g>
</svg>