<?xml version="1.0" encoding="UTF-8"?>
<svg width="22px" height="22px" viewBox="0 0 22 22" version="1.1" xmlns="http://www.w3.org/2000/svg" xmlns:xlink="http://www.w3.org/1999/xlink">
    <!-- Generator: Sketch 60 (88103) - https://sketch.com -->
    <title>Shape Copy</title>
    <desc>Created with Sketch.</desc>
    <g id="Page-1" stroke="none" stroke-width="1" fill="none" fill-rule="evenodd">
        <path d="M10,0 C12.2091391,0 14,1.79086101 14,4 L14,7.00001138 L18.6486763,7.00006414 C19.5288039,6.99009718 20.3689061,7.36714396 20.9464641,8.03133566 C21.5240221,8.69552736 21.7807604,9.57984714 21.6484478,10.451562 L20.2686958,19.4499362 C20.0443958,20.9289956 18.7647133,22.0167839 17.2800001,22.0003184 L6,22.0003184 C5.44771527,22.0003184 5,21.5524145 5,21.0001297 L5,17.4640001 L3.96476384,21.2631175 C3.84611076,21.6981788 3.45095107,22 3,22 C1.34314576,22 0,20.6568543 0,19 L0,12 C0,10.3431458 1.34314576,9 3,9 L5.35000002,9 L9.08618849,0.593861536 C9.24668983,0.232733522 9.60481132,0 10,0 Z M10.6080478,2.09410695 L7.00000003,10.2122145 L7.00000003,20.0002555 L17.2911744,20.0002555 C17.7899054,20.0057655 18.2165334,19.6431123 18.2915523,19.1484381 L19.6713238,10.1499359 C19.7153518,9.85986359 19.6297724,9.56509033 19.4372531,9.34369309 C19.2447337,9.12229586 18.9646997,8.9966136 18.6600001,9.00000004 L13,9.00000004 C12.4477153,9.00000004 12,8.55228479 12,8.00000003 L12,4.00000002 C12,3.10743501 11.4153103,2.35143162 10.6080478,2.09410695 Z M4.69074963,11 L3.00000001,11 C2.44771526,11 2.00000001,11.4477153 2.00000001,12 L2.00000001,19 C2.00000001,19.2853447 2.11951304,19.5427756 2.31121323,19.7249669 L4.69074963,11 Z" id="Shape-Copy" fill="#FF3939" transform="translate(10.841270, 11.000159) rotate(-180.000000) translate(-10.841270, -11.000159) "></path>
    </g>
</svg>