<?xml version="1.0" encoding="UTF-8" ?>
<svg width="36px" height="27px" viewBox="0 0 36 27" version="1.1" xmlns="http://www.w3.org/2000/svg" xmlns:xlink="http://www.w3.org/1999/xlink">
    <!-- Generator: Sketch 60 (88103) - https://sketch.com -->
    <title>Shape</title>
    <desc>Created with Sketch.</desc>
    <g id="Page-1" stroke="none" stroke-width="1" fill="none" fill-rule="evenodd">
        <path d="M18,0 C23.0697037,0 27.5080384,2.4487364 31.2818058,6.47408831 C32.5783105,7.85702668 33.7042493,9.33366763 34.6584966,10.8112119 L35.0160331,11.3773181 C35.2915831,11.8240222 35.5110472,12.2059803 35.6737267,12.5073071 L35.8416408,12.8291796 C36.0527864,13.2514708 36.0527864,13.7485292 35.8416408,14.1708204 L35.6737267,14.4926929 C35.5110472,14.7940197 35.2915831,15.1759778 35.0160331,15.6226819 L34.6584966,16.1887881 C33.7042493,17.6663324 32.5783105,19.1429733 31.2818058,20.5259117 C27.5080384,24.5512636 23.0697037,27 18,27 C12.9302963,27 8.4919616,24.5512636 4.71819419,20.5259117 C3.42168947,19.1429733 2.29575074,17.6663324 1.34150343,16.1887881 L0.983966896,15.6226819 C0.708416896,15.1759778 0.48895283,14.7940197 0.326273323,14.4926929 L0.158359214,14.1708204 C-0.0527864045,13.7485292 -0.0527864045,13.2514708 0.158359214,12.8291796 L0.326273323,12.5073071 C0.48895283,12.2059803 0.708416896,11.8240222 0.983966896,11.3773181 L1.34150343,10.8112119 C2.29575074,9.33366763 3.42168947,7.85702668 4.71819419,6.47408831 C8.4919616,2.4487364 12.9302963,0 18,0 Z M18,3 C13.8822037,3 10.1642884,5.0512636 6.90680581,8.52591169 C5.74237303,9.76797332 4.72378051,11.1038324 3.86162157,12.4387881 C3.61691586,12.8176873 3.39988293,13.1735545 3.21106826,13.5 C3.39988293,13.8264455 3.61691586,14.1823127 3.86162157,14.5612119 C4.72378051,15.8961676 5.74237303,17.2320267 6.90680581,18.4740883 C10.1642884,21.9487364 13.8822037,24 18,24 C22.1177963,24 25.8357116,21.9487364 29.0931942,18.4740883 C30.257627,17.2320267 31.2762195,15.8961676 32.1383784,14.5612119 C32.3015156,14.3086124 32.4523537,14.0662494 32.5907312,13.8360161 L32.7889317,13.5 L32.5907312,13.1639839 L32.2974099,12.6879053 C32.24577,12.6060504 32.1927575,12.522988 32.1383784,12.4387881 C31.2762195,11.1038324 30.257627,9.76797332 29.0931942,8.52591169 C25.8357116,5.0512636 22.1177963,3 18,3 Z M18,8 C21.3137085,8 24,10.6862915 24,14 C24,17.3137085 21.3137085,20 18,20 C14.6862915,20 12,17.3137085 12,14 C12,10.6862915 14.6862915,8 18,8 Z M18,11 C16.3431458,11 15,12.3431458 15,14 C15,15.6568542 16.3431458,17 18,17 C19.6568542,17 21,15.6568542 21,14 C21,12.3431458 19.6568542,11 18,11 Z" id="Shape" fill="#A1A1A1"></path>
    </g>
</svg>