<?xml version="1.0" encoding="UTF-8" ?>
<svg width="28px" height="36px" viewBox="0 0 28 36" version="1.1" xmlns="http://www.w3.org/2000/svg" xmlns:xlink="http://www.w3.org/1999/xlink">
    <!-- Generator: Sketch 60 (88103) - https://sketch.com -->
    <title>Path Copy</title>
    <desc>Created with Sketch.</desc>
    <g id="Page-1" stroke="none" stroke-width="1" fill="none" fill-rule="evenodd">
        <path d="M15.5400697,1 C17.6840883,1 19.518583,1.2319236 21.043554,1.6957708 C22.568525,2.15961801 23.8594657,2.76261937 24.9163763,3.5047749 C25.6109175,3.99954525 25.9883856,4.60254661 26.0487805,5.31377899 C26.1091754,6.02501137 25.9279907,6.68985903 25.5052265,7.30832196 C25.0824623,7.9267849 24.5615563,8.31332424 23.9425087,8.46793997 C23.3234611,8.62255571 22.7270616,8.51432469 22.1533101,8.14324693 C21.2775842,7.58663029 20.3037166,7.15370623 19.2317073,6.84447476 C18.159698,6.53524329 16.9291521,6.38062756 15.5400697,6.38062756 C14.0301974,6.38062756 12.724158,6.55843565 11.6219512,6.91405184 C10.5197445,7.26966803 9.61382114,7.88040018 8.90418118,8.74624829 C8.19454123,9.61209641 7.67363531,10.7562528 7.34146341,12.1787176 C7.03697251,13.4826436 6.87203994,15.085386 6.8466657,16.9869448 L6.84320557,17.5129604 L6.84320557,18.4870396 L6.8466657,19.0130552 C6.87203994,20.914614 7.03697251,22.5173564 7.34146341,23.8212824 C7.67363531,25.2437472 8.19454123,26.3879036 8.90418118,27.2537517 C9.61382114,28.1195998 10.5348432,28.730332 11.6672474,29.0859482 C12.7996516,29.4415643 14.1811847,29.6193724 15.8118467,29.6193724 C16.9291521,29.6193724 17.9030197,29.5420646 18.7334495,29.3874488 C19.3977933,29.2637563 20.0669686,29.0806912 20.7409756,28.8382538 L21.2473868,28.6452933 L21.2473868,20.899045 L16.174216,20.899045 L15.9712892,20.8916235 C15.3788153,20.8470941 14.933101,20.6021828 14.6341463,20.1568895 C14.3019744,19.6621191 14.1358885,19.0745794 14.1358885,18.3942701 C14.1358885,17.744884 14.3019744,17.1728058 14.6341463,16.6780355 C14.933101,16.2327422 15.3788153,15.9878308 15.9712892,15.9433015 L16.174216,15.9358799 L23.1498258,15.9358799 L23.4337824,15.9395907 C24.7311989,15.9742246 25.6406117,16.251296 26.1620209,16.7708049 C26.6834301,17.2903138 26.961515,18.2004164 26.9962756,19.5011126 L27,19.7858117 L27,28.9699864 L26.9951335,29.2839457 C26.9626899,30.3087542 26.7680287,31.1163339 26.4111498,31.7066849 C26.018583,32.3560709 25.3391405,32.897226 24.3728223,33.3301501 C23.1649245,33.8558436 21.7984901,34.2655753 20.2735192,34.5593452 C18.7485482,34.8531151 17.2009292,35 15.630662,35 C13.2752613,35 11.1840883,34.7139609 9.35714286,34.1418827 C7.53019744,33.5698045 5.99767712,32.6498408 4.75958188,31.3819918 C3.52148664,30.1141428 2.58536585,28.4597544 1.95121951,26.4188267 C1.35934959,24.5139609 1.04368564,22.2185013 1.00422764,19.5324481 L1,18.9508868 L1,17.0491132 L1.00422764,16.4675519 C1.04368564,13.7814987 1.35934959,11.4860391 1.95121951,9.58117326 C2.58536585,7.54024557 3.52148664,5.88585721 4.75958188,4.61800819 C5.99767712,3.35015916 7.51509872,2.43019554 9.31184669,1.85811733 C11.1085947,1.28603911 13.184669,1 15.5400697,1 Z" id="Path-Copy" stroke="#FFFFFF" fill="#FFFFFF"></path>
    </g>
</svg>