<?xml version="1.0" encoding="UTF-8" ?>
<svg width="44px" height="40px" viewBox="0 0 44 40" version="1.1" xmlns="http://www.w3.org/2000/svg" xmlns:xlink="http://www.w3.org/1999/xlink">
    <!-- Generator: Sketch 60 (88103) - https://sketch.com -->
    <title>Shape Copy</title>
    <desc>Created with Sketch.</desc>
    <g id="Page-1" stroke="none" stroke-width="1" fill="none" fill-rule="evenodd">
        <path d="M44,1.82062388 L44,30.9076257 C44,31.560005 43.6474755,32.1623667 43.0762547,32.4860375 L30.2429214,39.757788 C29.9197687,39.940896 29.5535625,40.0194093 29.1929926,39.9919879 L29.1562988,39.9944842 L29.1562988,39.9944842 L29,40 C28.3356998,40 27.7470442,39.7031166 27.3833203,39.2461963 L14.7592606,32.9868545 C14.7409447,32.9848403 14.7227049,32.9825991 14.7045447,32.9801342 L2.74292139,39.757788 C1.52071732,40.4503254 0,39.5752298 0,38.1793761 L0,9.09237433 C0,8.43999497 0.352524452,7.83763327 0.92374528,7.51396247 L13.7570786,0.24221202 C14.0802313,0.0591040211 14.4464375,-0.0194093192 14.8070074,0.00801210155 L14.8437012,0.0055158202 L14.8437012,0.0055158202 L15,0 C15.6643002,0 16.2529558,0.296883433 16.6166797,0.753803695 L29.2407394,7.01314551 C29.2590553,7.01515974 29.2772951,7.0174009 29.2954553,7.01986582 L41.2570786,0.24221202 C42.4792827,-0.450325356 44,0.424770176 44,1.82062388 Z M40.3333333,4.95325703 L31,10.241 L31,35.141 L40.3333333,29.8526355 L40.3333333,4.95325703 Z M13,4.858 L3.66666667,10.1473645 L3.66666667,35.046743 L13,29.758 L13,4.858 Z M17,5.01 L17,30.032 L27,34.99 L27,9.968 L17,5.01 Z" id="Shape-Copy" fill="#FFFFFF"></path>
    </g>
</svg>