<?xml version="1.0" encoding="UTF-8"?>
<svg width="12px" height="12px" viewBox="0 0 12 12" version="1.1" xmlns="http://www.w3.org/2000/svg" xmlns:xlink="http://www.w3.org/1999/xlink">
    <!-- Generator: Sketch 60 (88103) - https://sketch.com -->
    <title>search-icon</title>
    <desc>Created with Sketch.</desc>
    <g id="Symbols" stroke="none" stroke-width="1" fill="none" fill-rule="evenodd">
        <g id="search-icon" fill="#00C1DA">
            <path d="M4.81712756,2.14190094 C3.33987511,2.14190094 2.14094558,3.34136546 2.14094558,4.81927711 C2.14094558,6.29718876 3.33987511,7.49665328 4.81712756,7.49665328 C6.29438002,7.49665328 7.49330955,6.29718876 7.49330955,4.81927711 C7.49330955,3.34136546 6.29438002,2.14190094 4.81712756,2.14190094 Z M10.485281,12 L7.37555754,8.88888889 C6.63157895,9.3601071 5.75914362,9.63855422 4.81712756,9.63855422 C2.15700268,9.63855422 0,7.48058902 0,4.81927711 C0,2.15796519 2.15700268,0 4.81712756,0 C7.47725245,0 9.63425513,2.15796519 9.63425513,4.81927711 C9.63425513,5.76171352 9.3559322,6.63453815 8.88492417,7.37349398 L12,10.4792503 L10.485281,12 Z" id="Page-1"></path>
        </g>
    </g>
</svg>